<svg width="28" height="24" viewBox="0 0 28 24" fill="none" xmlns="http://www.w3.org/2000/svg">
<path d="M26.4644 9.41428H21.5648L18.0401 0.922417C17.7259 0.161393 16.8497 -0.202837 16.0929 0.11496C15.3313 0.430948 14.9719 1.30534 15.2873 2.06576L18.3362 9.41428H9.94082L12.9897 2.06456C13.3051 1.30474 12.9445 0.430948 12.1835 0.11496C11.4255 -0.202837 10.5511 0.162599 10.2363 0.923623L6.7116 9.41428H1.81198C0.987637 9.41428 0.321289 10.077 0.321289 10.9008C0.321289 11.7233 0.987637 12.3866 1.81198 12.3866H2.32576L3.84238 20.6849C4.16983 22.4759 5.73047 23.7833 7.55101 23.7833H20.7272C22.549 23.7833 24.1078 22.4759 24.4352 20.6849L25.9525 12.3866H26.4669C27.2906 12.3866 27.9581 11.7227 27.9581 10.9008C27.9551 10.0764 27.2888 9.41428 26.4644 9.41428Z" fill="url(#paint0_linear)"/>
<defs>
<linearGradient id="paint0_linear" x1="0.321289" y1="0" x2="28.007" y2="0.0570359" gradientUnits="userSpaceOnUse">
<stop stop-color="#8940E9"/>
<stop offset="1" stop-color="#F75AA9"/>
</linearGradient>
</defs>
</svg>
