<svg width="1899" height="468" viewBox="0 0 1899 468" fill="none" xmlns="http://www.w3.org/2000/svg">
<path d="M1877.55 206.424C1859.03 203.763 1845.48 213.457 1833.74 222.011C1824.94 228.473 1820.19 228.093 1811.16 225.052C1799.2 220.87 1786.55 218.399 1770.74 214.408C1782.71 210.416 1785.65 202.623 1792.42 197.681C1794.23 196.35 1797.39 194.259 1794 192.359C1786.55 187.987 1790.39 185.896 1795.58 183.235C1799.65 181.144 1801.9 177.913 1803.71 174.301C1804.61 172.591 1805.07 170.12 1807.78 170.69C1809.58 171.07 1811.39 172.971 1812.29 174.681C1813.65 177.343 1815 180.194 1814.78 182.855C1814.1 194.45 1820.42 204.334 1826.29 214.218C1827.42 216.118 1828.32 220.3 1832.16 217.259C1834.65 215.358 1840.52 213.267 1836 209.085C1826.97 200.532 1825.39 189.698 1822.45 179.433C1820.42 172.21 1818.39 166.128 1807.32 165.748C1801.23 165.558 1798.97 160.046 1795.36 156.624C1793.1 154.533 1801.9 155.294 1798.29 150.732C1787.91 137.046 1784.74 121.65 1785.42 105.493C1785.42 102.642 1785.2 100.171 1781.36 99.7909C1777.52 99.2207 1775.26 101.882 1775.94 104.353C1779.32 116.708 1763.07 120.129 1761.03 130.393C1760.36 122.79 1761.49 115.567 1751.33 111.766C1742.29 108.344 1736.42 112.336 1731.23 116.898C1727.84 119.749 1719.71 121.27 1722.65 126.212C1725.58 130.964 1731.23 124.501 1735.97 125.832C1736.65 126.022 1737.1 126.402 1738.23 126.972C1735.29 132.294 1732.58 137.806 1729.42 143.319C1725.36 150.352 1724 158.715 1711.36 160.996C1707.52 161.756 1701.2 168.599 1702.1 174.681C1702.78 179.243 1707.52 181.524 1712.26 183.045C1714.07 180.384 1712.04 179.243 1711.13 178.103C1707.52 173.351 1708.65 168.599 1712.49 164.797C1716.1 161.186 1721.52 160.806 1726.94 161.756C1731.68 162.516 1735.29 164.797 1738.45 167.458C1744.55 172.591 1751.55 175.822 1760.13 176.582C1761.71 176.772 1781.36 198.821 1781.13 200.152C1781.13 200.532 1781.13 200.722 1780.91 201.102C1780 203.763 1758.1 213.837 1754.49 212.697C1728.07 204.334 1701.65 210.796 1675.23 211.937C1668 212.317 1662.58 216.689 1664.17 222.771C1665.97 229.044 1669.13 235.696 1674.33 240.258C1688.1 252.423 1686.97 261.547 1668.91 270.671C1666.87 267.249 1670.04 260.406 1660.55 261.547C1653.78 262.307 1646.55 260.596 1647.91 269.91C1648.36 273.522 1643.84 272.761 1641.13 272.952C1628.71 273.712 1617.42 271.811 1605.91 267.629C1599.36 265.348 1595.52 263.448 1595.3 257.745C1595.07 246.911 1595.3 236.267 1595.3 225.432C1595.3 220.49 1598.01 216.689 1603.88 215.738C1616.52 213.457 1618.33 212.507 1621.49 203.193C1621.71 202.243 1621.94 201.292 1622.62 200.532C1626.46 193.879 1621.49 189.127 1617.88 183.995C1616.97 182.475 1615.39 181.334 1613.59 183.425C1607.94 189.698 1606.81 184.375 1605.46 180.954C1603.42 176.202 1600.49 172.02 1596.65 167.649C1587.39 174.872 1584.46 182.665 1589.88 191.788C1592.59 196.16 1591.01 200.532 1591.23 204.904C1591.46 208.705 1588.07 208.895 1585.13 208.515C1580.17 207.755 1583.33 205.094 1584.23 203.573C1589.2 194.64 1584.01 188.367 1577.46 181.904C1570.01 188.557 1565.49 195.59 1570.23 204.334C1570.91 205.664 1572.72 206.995 1570.46 208.515C1567.52 210.416 1566.62 212.887 1570.01 214.788C1572.94 216.308 1575.65 219.73 1579.94 217.639C1590.78 212.127 1592.36 218.779 1592.81 225.242C1593.49 233.415 1593.04 241.779 1593.04 249.952C1593.04 265.348 1593.26 266.489 1576.78 269.34C1566.17 271.241 1554.65 271.241 1543.59 272.191C1533.43 273.142 1523.04 269.15 1512.88 267.249C1501.36 265.158 1488.94 266.299 1476.97 266.109C1464.1 265.729 1453.49 260.026 1452.59 252.613C1452.14 249.192 1452.59 245.39 1453.94 241.969C1454.85 239.498 1453.94 238.547 1452.14 237.217C1450.78 236.457 1449.43 236.267 1448.07 237.407C1446.49 238.738 1446.04 239.498 1447.17 241.969C1449.88 247.861 1447.39 254.134 1446.72 260.216C1446.27 264.398 1439.94 260.977 1437.01 262.687C1434.98 264.018 1432.72 265.729 1432.27 267.629C1430.69 272.952 1426.62 273.332 1421.2 273.332C1402.69 273.142 1384.4 272.761 1365.88 273.142C1358.2 273.332 1355.94 270.671 1356.17 264.778C1356.4 251.853 1356.17 239.118 1356.17 226.192C1355.72 226.192 1355.27 226.192 1354.82 226.192C1354.82 240.258 1354.82 254.324 1354.82 268.2C1341.04 255.845 1329.53 242.729 1318.01 229.804C1315.3 226.763 1317.78 225.242 1319.82 223.531C1321.17 222.391 1322.07 220.87 1320.49 219.35C1319.14 217.829 1317.33 217.639 1315.75 218.779C1313.49 220.49 1311.46 222.581 1308.53 219.35C1305.82 216.308 1307.4 214.218 1310.11 212.127C1311.69 210.986 1312.14 209.656 1310.56 207.945C1308.98 206.424 1307.17 206.234 1305.82 207.565C1301.98 211.366 1300.17 209.276 1297.24 206.424C1293.4 202.623 1295.88 201.292 1299.49 199.392C1301.3 198.441 1301.53 196.73 1300.17 195.4C1298.82 193.879 1297.01 193.689 1295.43 195.02C1292.72 197.491 1290.46 198.631 1287.3 195.02C1284.14 191.598 1287.07 189.888 1289.33 187.987C1290.69 186.846 1292.04 185.516 1290.24 183.995C1289.11 182.855 1287.53 181.524 1285.49 182.855C1282.78 184.565 1280.98 187.036 1277.37 183.425C1273.53 179.623 1276.91 177.913 1279.4 175.632C1280.75 174.301 1280.98 172.781 1279.17 171.45C1277.82 170.5 1276.24 169.929 1275.33 171.07C1269.46 176.772 1266.75 172.02 1264.72 168.599C1261.33 162.897 1248.46 158.715 1259.75 150.161C1260.66 149.401 1257.27 146.55 1256.82 146.93C1250.49 153.013 1244.85 146.74 1238.98 146.17C1221.82 144.839 1204.66 143.319 1187.5 141.988C1186.82 144.839 1189.3 146.36 1190.88 147.881C1221.14 182.855 1243.27 221.631 1266.53 260.026C1267.43 261.737 1270.37 263.638 1266.98 265.729C1262.46 268.58 1245.3 264.968 1241.91 260.787C1239.2 257.745 1238.98 250.903 1233.33 252.233C1225.66 254.324 1235.59 259.076 1232.43 263.448C1228.14 263.448 1222.95 263.448 1217.75 263.448C1205.79 263.638 1193.14 261.357 1182.3 266.109C1171.92 270.861 1163.56 268.2 1155.21 264.398C1145.95 260.216 1137.82 257.175 1129.24 265.729C1126.76 268.2 1122.46 267.439 1119.3 264.968C1117.05 263.258 1115.46 260.216 1111.63 260.026C1110.05 261.927 1108.24 263.638 1107.11 265.538C1101.69 274.852 1093.79 277.323 1082.5 272.571C1080.47 271.621 1077.76 269.72 1075.27 272.001C1066.92 279.414 1058.11 274.472 1049.08 273.522C1039.14 272.381 1034.4 269.72 1041.4 261.357C1043.21 259.266 1046.14 255.845 1041.18 254.134C1036.66 252.613 1035.98 256.985 1034.63 259.076C1028.31 268.58 1015.89 277.894 1002.11 282.836C1023.34 235.886 1053.59 193.689 1084.98 150.922C1067.82 148.451 1051.79 146.93 1036.21 143.889C1022.89 141.228 1013.18 142.558 1006.85 153.583C1005.72 155.674 1004.37 160.806 998.951 157.004C996.919 155.674 995.564 154.533 993.306 156.624C990.596 159.285 993.08 160.806 995.112 161.946C999.402 164.417 995.79 166.318 994.661 168.219C993.306 170.31 991.273 171.83 988.564 169.169C986.757 167.458 984.499 167.268 982.919 169.359C981.112 171.45 982.693 173.161 984.951 173.731C990.822 174.872 987.435 177.342 985.854 179.053C984.274 181.144 982.919 185.136 978.403 181.904C976.145 180.384 974.338 178.673 972.08 181.524C969.822 184.185 972.758 185.706 974.79 186.846C978.854 188.937 976.596 191.218 975.016 193.119C973.887 194.64 972.306 196.35 969.596 195.02C967.338 193.879 965.08 190.458 962.145 193.689C958.758 197.301 963.726 198.441 965.532 200.342C968.016 203.193 965.984 205.094 964.177 206.995C962.145 209.276 960.564 207.755 958.758 206.234C956.952 204.714 955.145 202.433 952.435 205.284C949.5 208.325 952.887 210.416 955.145 211.176C963.5 213.647 956.5 216.499 955.597 218.779C953.79 222.581 951.532 221.06 949.048 218.97C947.468 217.639 946.113 214.408 942.952 216.879C939.565 219.54 942.5 222.011 944.758 222.961C951.306 225.432 949.048 228.283 946.339 231.705C942.274 237.027 940.468 231.895 937.984 230.374C935.952 229.234 934.371 228.093 932.113 229.804C929.404 231.895 931.662 233.796 933.242 234.366C945.21 238.167 937.758 243.109 934.597 247.861C930.984 253.374 927.146 258.886 923.307 264.208C919.694 268.96 891.695 269.53 888.082 265.158C887.63 264.588 887.63 264.018 887.404 263.448C885.598 260.026 891.243 253.564 882.211 252.993C877.695 252.803 871.147 250.712 869.792 257.745C869.792 257.935 868.663 258.125 868.211 258.125C861.437 257.555 861.437 257.555 860.534 263.068C859.631 268.39 855.792 272.381 849.921 272.571C841.566 272.571 846.76 266.299 845.405 263.068C844.953 261.547 845.179 259.836 844.953 258.316C844.728 256.985 843.599 256.035 842.018 255.845C840.437 255.654 838.857 256.225 838.631 257.555C836.599 266.679 825.986 263.638 819.889 267.059C817.631 268.2 812.889 267.819 811.986 263.828C810.406 256.035 805.664 258.886 802.277 262.307C797.761 266.489 792.793 268.2 786.471 267.629C783.987 267.439 781.954 267.629 779.471 269.34C769.31 275.993 758.019 275.232 748.31 268.58C744.697 266.109 740.633 262.307 736.794 268.39C733.181 274.092 725.052 275.042 719.859 275.803C714.214 276.563 709.698 270.48 706.988 264.588C700.44 249.382 693.44 233.986 670.182 231.705C665.44 231.325 664.763 223.911 657.763 225.242C656.86 220.11 657.311 215.168 658.215 210.226C659.344 203.763 658.892 196.73 653.247 192.359C647.376 187.987 646.247 183.235 646.473 177.343C646.473 174.681 648.054 169.929 642.408 170.12C638.118 170.31 637.667 174.491 637.892 177.723C638.344 184.756 638.118 191.028 630.893 196.54C627.054 199.392 623.441 203.953 627.505 210.416C629.764 214.027 631.344 221.631 625.699 225.432C619.377 229.804 613.28 234.366 604.248 236.076C592.958 238.167 585.055 245.77 583.7 255.464C582.571 263.258 578.506 264.778 570.603 264.018C566.99 263.638 563.152 263.638 559.313 263.828C547.571 264.398 536.055 258.696 524.088 263.258C521.378 264.208 519.798 262.497 520.023 260.216C520.249 250.712 510.991 249.002 503.54 247.291C496.766 245.58 483.218 254.324 481.411 260.787C480.282 264.778 477.121 266.489 473.056 267.629C468.54 268.77 465.605 266.299 464.024 263.638C461.315 258.886 455.444 257.365 451.605 253.944C448.67 251.473 443.251 248.622 443.025 256.225C443.025 259.836 439.864 261.357 436.476 261.167C433.315 260.977 431.509 258.506 431.057 255.845C430.831 253.944 430.831 252.043 430.831 250.142C430.831 242.159 426.993 238.357 416.38 238.547C406.445 238.738 400.8 241.209 401.703 249.762C402.38 256.985 396.961 256.035 391.768 256.415C385.445 256.795 382.058 255.654 382.284 249.382C382.735 235.696 382.058 222.201 382.735 208.515C382.961 204.143 382.284 200.532 377.316 199.392C368.058 196.921 366.703 191.218 368.058 184.565C369.413 177.152 366.026 168.599 358.8 168.409C350.671 168.219 349.091 176.962 349.542 184.185C349.768 188.557 352.704 195.21 346.833 197.301C334.865 201.672 337.349 209.656 337.349 217.259C337.349 223.912 337.349 230.564 337.349 237.217C337.349 258.125 337.349 258.316 312.059 257.365C308.446 257.175 304.608 258.125 302.801 253.754C301.672 251.093 297.834 251.093 296.93 253.564C294.898 258.696 290.382 256.985 286.769 256.985C267.576 257.175 248.383 256.795 229.19 257.175C220.835 257.365 219.254 254.704 219.48 248.432C219.932 223.151 220.383 197.681 219.254 172.401C218.803 159.665 214.964 147.12 202.997 137.616C201.642 136.666 200.061 135.145 200.061 133.815C200.739 118.228 198.706 103.402 193.287 88.1962C190.126 78.8824 191.029 68.238 190.803 58.1639C190.352 33.2638 184.424 61.4534 186.005 36.3632C186.682 27.6196 186.005 9.75231 186.005 0.818665C185.101 0.818665 183.972 0.818665 183.069 0.818665C182.843 2.33928 182.843 3.85989 182.618 5.38051C181.714 45.6769 181.997 41.8173 181.094 82.1137C181.094 85.345 182.223 89.7168 180.416 91.4275C168.449 101.882 171.836 114.427 172.062 126.592C172.062 133.054 170.933 137.996 164.158 141.988C158.513 145.41 156.707 151.302 155.804 157.004C153.546 170.69 161.449 185.706 149.256 198.251C153.772 218.779 142.933 238.357 142.707 258.696C142.707 265.158 148.804 275.423 132.546 275.423C132.095 275.423 131.643 276.373 131.417 276.943C127.804 284.166 121.03 282.075 116.063 279.414C110.643 276.373 108.159 275.613 107.708 281.885C107.482 283.596 107.256 285.116 105.224 285.687C102.74 286.257 102.514 284.356 101.385 283.216C97.0951 278.464 91.4501 277.513 88.063 283.406C83.3212 291.959 72.4826 293.48 64.8054 298.612C62.0957 300.323 56.4507 300.323 53.0636 297.852C50.5798 295.951 51.9346 293.48 54.6442 291.579C57.1281 290.059 54.87 289.678 53.2894 288.538C48.3218 285.497 43.5799 283.596 37.2574 284.356C26.4189 285.497 16.032 290.059 4.74186 288.728C4.74186 293.86 4.74186 298.802 4.74186 303.934H0V468H1899V319.711C1899 314.008 1899 308.306 1899 302.604C1899 267.819 1899 232.845 1899 198.061C1890.19 198.061 1886.81 207.755 1877.55 206.424Z" fill="url(#paint0_diamond)" fill-opacity="0.3"/>
<defs>
<radialGradient id="paint0_diamond" cx="0" cy="0" r="1" gradientUnits="userSpaceOnUse" gradientTransform="translate(-519 540.5) rotate(2.92306) scale(4408.24 1276.88)">
<stop stop-color="#EB81A1"/>
<stop offset="0.197917" stop-color="#F24C74"/>
<stop offset="1" stop-color="#FF3232"/>
</radialGradient>
</defs>
</svg>
