<?xml version="1.0" encoding="utf-8"?>
<!-- Generator: Adobe Illustrator 23.0.3, SVG Export Plug-In . SVG Version: 6.00 Build 0)  -->
<svg version="1.1" id="Слой_1" xmlns="http://www.w3.org/2000/svg" xmlns:xlink="http://www.w3.org/1999/xlink" x="0px" y="0px"
	 viewBox="0 0 57 57" style="enable-background:new 0 0 57 57;" xml:space="preserve">
<style type="text/css">
	.st0{fill:url(#SVGID_1_);}
	.st1{fill:url(#SVGID_2_);}
	.st2{fill:url(#SVGID_3_);}
</style>
<g>
	
		<radialGradient id="SVGID_1_" cx="-262.5219" cy="420.9005" r="1" gradientTransform="matrix(22.9225 10.604 10.4791 -22.6524 1626.1038 12342.4941)" gradientUnits="userSpaceOnUse">
		<stop  offset="0" style="stop-color:#FDE1C7"/>
		<stop  offset="0.1615" style="stop-color:#EE83A9"/>
		<stop  offset="1" style="stop-color:#FFBE5C"/>
	</radialGradient>
	<path class="st0" d="M28.5,22.1c-3.5,0-6.4,2.9-6.4,6.4c0,3.5,2.9,6.4,6.4,6.4c3.5,0,6.4-2.9,6.4-6.4C34.9,25,32,22.1,28.5,22.1z
		 M28.5,32.7c-2.3,0-4.2-1.9-4.2-4.2s1.9-4.2,4.2-4.2c2.3,0,4.2,1.9,4.2,4.2C32.7,30.8,30.8,32.7,28.5,32.7z"/>
	
		<radialGradient id="SVGID_2_" cx="-269.5703" cy="424.8437" r="1" gradientTransform="matrix(44.6687 20.6642 20.421 -44.1429 3375.7651 24344.6484)" gradientUnits="userSpaceOnUse">
		<stop  offset="0" style="stop-color:#FDE1C7"/>
		<stop  offset="0.1615" style="stop-color:#EE83A9"/>
		<stop  offset="1" style="stop-color:#FFBE5C"/>
	</radialGradient>
	<path class="st1" d="M33.7,16.1c-2.3-0.1-8-0.1-10.3,0c-2,0.1-3.8,0.6-5.2,2c-2.4,2.4-2.1,5.6-2.1,10.4c0,4.9-0.3,8,2.1,10.4
		c2.4,2.4,5.7,2.1,10.4,2.1c4.8,0,6.5,0,8.2-0.7c2.3-0.9,4.1-3,4.2-6.7c0.1-2.3,0.1-8,0-10.3C40.7,19,38.4,16.3,33.7,16.1z
		 M37.3,37.3c-1.6,1.6-3.8,1.4-8.8,1.4c-5.2,0-7.3,0.1-8.8-1.5c-1.8-1.7-1.4-4.6-1.4-8.8c0-5.8-0.6-9.9,5.2-10.2
		c1.3,0,1.7-0.1,5.1-0.1l0,0c5.6,0,9.9-0.6,10.2,5.2c0.1,1.3,0.1,1.7,0.1,5C38.7,33.6,38.8,35.7,37.3,37.3z"/>
	
		<radialGradient id="SVGID_3_" cx="-215.0428" cy="394.3393" r="1" gradientTransform="matrix(5.3565 2.4779 2.4487 -5.2934 219.2183 2641.1111)" gradientUnits="userSpaceOnUse">
		<stop  offset="0" style="stop-color:#FDE1C7"/>
		<stop  offset="0.1615" style="stop-color:#EE83A9"/>
		<stop  offset="1" style="stop-color:#FFBE5C"/>
	</radialGradient>
	<path class="st2" d="M35.2,23.3c0.8,0,1.5-0.7,1.5-1.5c0-0.8-0.7-1.5-1.5-1.5c-0.8,0-1.5,0.7-1.5,1.5
		C33.7,22.7,34.3,23.3,35.2,23.3z"/>
</g>
</svg>
