<svg width="20" height="20" viewBox="0 0 20 20" fill="none" xmlns="http://www.w3.org/2000/svg">
<path d="M1.60484 13.1277C2.82932 13.1277 4.0316 12.9362 5.17092 12.5597C5.7292 12.3693 6.4155 12.544 6.75623 12.8939L9.00503 14.5915C11.613 13.1994 13.2194 11.5934 14.5926 9.00505L12.9449 6.81484C12.5168 6.38734 12.3633 5.76286 12.5473 5.17693C12.9254 4.03161 13.1175 2.8299 13.1175 1.6049C13.1174 0.719948 13.8374 0 14.7223 0H18.3952C19.2801 0 20 0.719948 20 1.60484C20 11.7481 11.748 20 1.60484 20C0.719946 20 0 19.2801 0 18.3952V14.7325C5.14984e-05 13.8477 0.719999 13.1277 1.60484 13.1277Z" fill="white"/>
</svg>
