<svg width="25" height="27" viewBox="0 0 25 27" fill="none" xmlns="http://www.w3.org/2000/svg">
<path d="M12.4549 0C8.7292 0 5.68359 3.04561 5.68359 6.77135C5.68359 10.4971 8.7292 13.5427 12.4549 13.5427C16.1807 13.5427 19.2263 10.4971 19.2263 6.77135C19.2263 3.04561 16.1807 0 12.4549 0Z" fill="url(#paint0_linear)"/>
<path d="M24.0756 18.9546C23.8982 18.511 23.6617 18.0971 23.3956 17.7127C22.0354 15.7019 19.936 14.3713 17.5705 14.0461C17.2748 14.0165 16.9495 14.0756 16.713 14.2531C15.471 15.1697 13.9926 15.6428 12.455 15.6428C10.9173 15.6428 9.43891 15.1697 8.197 14.2531C7.96042 14.0756 7.63515 13.9869 7.33949 14.0461C4.97395 14.3713 2.84499 15.7019 1.51439 17.7127C1.24827 18.0971 1.01169 18.5406 0.834318 18.9546C0.74563 19.132 0.775174 19.339 0.863862 19.5164C1.10044 19.9304 1.3961 20.3444 1.66222 20.6992C2.07617 21.261 2.51973 21.7637 3.02242 22.2368C3.43638 22.6507 3.90947 23.0351 4.38262 23.4195C6.71856 25.1642 9.52765 26.0807 12.4254 26.0807C15.3232 26.0807 18.1323 25.1641 20.4682 23.4195C20.9413 23.0647 21.4144 22.6507 21.8284 22.2368C22.3015 21.7637 22.7746 21.261 23.1886 20.6992C23.4843 20.3148 23.7505 19.9304 23.987 19.5164C24.1348 19.339 24.1643 19.132 24.0756 18.9546Z" fill="url(#paint1_linear)"/>
<defs>
<linearGradient id="paint0_linear" x1="5.68359" y1="0" x2="19.2503" y2="0.0240518" gradientUnits="userSpaceOnUse">
<stop stop-color="#8940E9"/>
<stop offset="1" stop-color="#F75AA9"/>
</linearGradient>
<linearGradient id="paint1_linear" x1="0.780762" y1="14.0278" x2="24.1666" y2="14.1081" gradientUnits="userSpaceOnUse">
<stop stop-color="#8940E9"/>
<stop offset="1" stop-color="#F75AA9"/>
</linearGradient>
</defs>
</svg>
