<svg width="49" height="49" viewBox="0 0 49 49" fill="none" xmlns="http://www.w3.org/2000/svg">
<ellipse cx="24.5" cy="24.5" rx="24.5" ry="24.5" transform="rotate(90 24.5 24.5)" fill="url(#paint0_diamond)"/>
<path d="M14.7215 21.145L28.9764 12.9149C29.8515 12.4097 30.9446 12.6641 31.4174 13.483L37.6786 24.3277C38.1514 25.1466 37.8251 26.2204 36.95 26.7257L22.6952 34.9557C22.242 35.2174 21.7045 35.2849 21.2208 35.1414L17.2186 33.9522C16.7437 34.717 16.0718 35.3811 15.2408 35.8609C15.0219 35.9873 14.7488 35.9237 14.6305 35.7189C14.5123 35.5141 14.5938 35.2458 14.8127 35.1194C16.5615 34.1097 17.4543 32.1211 17.0005 30.2951C16.9434 30.0648 17.0936 29.8218 17.3354 29.7532C17.5777 29.6849 17.8205 29.8161 17.8772 30.0466C17.9069 30.1654 17.9317 30.2852 17.9513 30.4049C18.7253 29.9314 19.0922 28.928 18.6221 28.1069C18.1697 27.3164 17.0974 27.0649 16.2544 27.5516C15.148 28.1903 15.0334 29.6629 15.9756 30.3523C16.0617 30.4157 16.1151 30.5116 16.1302 30.6178C16.2456 31.4261 16.2669 32.2283 15.6837 33.1328C15.5692 33.3108 15.3477 33.396 15.1492 33.337L12.9534 32.6848C12.0982 32.4309 11.6097 31.5846 11.8173 30.717L13.8236 22.3289C13.9412 21.8384 14.2684 21.4066 14.7215 21.145Z" fill="white"/>
<defs>
<radialGradient id="paint0_diamond" cx="0" cy="0" r="1" gradientUnits="userSpaceOnUse" gradientTransform="translate(9.49966 40.4996) rotate(-36.1198) scale(68.7061 37284.2)">
<stop offset="0.0159384" stop-color="#3C33A3"/>
<stop offset="0.291667" stop-color="#D04AB3"/>
<stop offset="0.682292" stop-color="#F71458"/>
</radialGradient>
</defs>
</svg>
