<?xml version="1.0" encoding="utf-8"?>
<!-- Generator: Adobe Illustrator 23.0.3, SVG Export Plug-In . SVG Version: 6.00 Build 0)  -->
<svg version="1.1" id="Слой_1" xmlns="http://www.w3.org/2000/svg" xmlns:xlink="http://www.w3.org/1999/xlink" x="0px" y="0px"
	 viewBox="0 0 57 57" style="enable-background:new 0 0 57 57;" xml:space="preserve">
<style type="text/css">
	.st0{fill:url(#SVGID_1_);}
</style>
<g>
	
		<radialGradient id="SVGID_1_" cx="-271.507" cy="422.0552" r="1" gradientTransform="matrix(57.1759 15.0916 9.6576 -36.5889 11452.124 19564.1699)" gradientUnits="userSpaceOnUse">
		<stop  offset="0" style="stop-color:#FDE1C7"/>
		<stop  offset="0.1615" style="stop-color:#EE83A9"/>
		<stop  offset="1" style="stop-color:#FFBE5C"/>
	</radialGradient>
	<path class="st0" d="M43.7,37.3c-0.1-0.1-0.6-1.3-3.2-3.7c-2.7-2.5-2.3-2.1,0.9-6.4c2-2.6,2.8-4.2,2.5-4.9
		c-0.2-0.7-1.7-0.5-1.7-0.5l-4.8,0c0,0-0.4,0-0.6,0.1c-0.3,0.2-0.4,0.5-0.4,0.5s-0.8,2-1.8,3.8c-2.1,3.6-3,3.8-3.4,3.6
		c-0.8-0.5-0.6-2.1-0.6-3.2c0-3.5,0.5-5-1-5.4c-0.5-0.1-0.9-0.2-2.2-0.2c-1.7,0-3.2,0-4,0.4c-0.5,0.3-1,0.9-0.7,0.9
		c0.3,0,1,0.2,1.4,0.7c0.5,0.7,0.5,2.2,0.5,2.2s0.3,4.2-0.7,4.7c-0.7,0.4-1.5-0.4-3.5-3.7c-1-1.7-1.7-3.6-1.7-3.6s-0.1-0.3-0.4-0.5
		c-0.3-0.2-0.7-0.3-0.7-0.3l-4.6,0c0,0-0.7,0-0.9,0.3c-0.2,0.3,0,0.8,0,0.8s3.6,8.4,7.6,12.6c3.7,3.9,7.9,3.6,7.9,3.6h1.9
		c0,0,0.6-0.1,0.9-0.4c0.3-0.3,0.3-0.8,0.3-0.8s0-2.6,1.2-2.9c1.2-0.4,2.7,2.5,4.3,3.6c1.2,0.8,2.1,0.6,2.1,0.6l4.3-0.1
		C42.5,39.2,44.8,39,43.7,37.3z"/>
</g>
</svg>
