<svg width="33" height="29" viewBox="0 0 33 29" fill="none" xmlns="http://www.w3.org/2000/svg">
<path d="M15.6237 5.57827L16.5 7.17245L17.3763 5.57829C17.8821 4.65821 18.7254 3.42552 19.9648 2.47131L19.3548 1.67892L19.9648 2.4713C21.2408 1.48898 22.669 1 24.2344 1C28.6084 1 32 4.54747 32 9.46439C32 12.0699 30.9631 14.3052 28.9912 16.6738C26.994 19.0728 24.1166 21.518 20.5352 24.5561L20.5352 24.5561L20.5346 24.5565C19.3259 25.5819 17.9516 26.7478 16.5222 27.9921L16.5219 27.9924C16.5171 27.9966 16.5097 28 16.5 28C16.4903 28 16.483 27.9966 16.4783 27.9925L16.4778 27.9921C15.0494 26.7487 13.6757 25.5833 12.4682 24.5589L12.4656 24.5567L12.4656 24.5567C8.8838 21.5183 6.0062 19.0729 4.00889 16.6739C2.03691 14.3052 1 12.0699 1 9.46439C1 4.54747 4.39157 1 8.76562 1C10.331 1 11.7592 1.48898 13.0352 2.4713L13.6452 1.67892L13.0352 2.47131C14.2746 3.42553 15.1179 4.65816 15.6237 5.57827Z" stroke="url(#paint0_angular)" stroke-width="2"/>
<defs>
<radialGradient id="paint0_angular" cx="0" cy="0" r="1" gradientUnits="userSpaceOnUse" gradientTransform="translate(16.5 14.5) rotate(90) scale(14.5 16.5)">
<stop stop-color="#BE4AC2"/>
<stop offset="0.53125" stop-color="#AE48D2"/>
<stop offset="1" stop-color="#F24A7C"/>
</radialGradient>
</defs>
</svg>
